<?xml version="1.0" encoding="UTF-8" standalone="no"?>
<svg
   xmlns:dc="http://purl.org/dc/elements/1.1/"
   xmlns:cc="http://creativecommons.org/ns#"
   xmlns:rdf="http://www.w3.org/1999/02/22-rdf-syntax-ns#"
   xmlns:svg="http://www.w3.org/2000/svg"
   xmlns="http://www.w3.org/2000/svg"
   id="svg5142"
   version="1.1"
   viewBox="0 0 20 20"
   height="20"
   width="20">
  <defs
     id="defs5136">
    <filter
       height="1.0329327"
       y="-0.016466337"
       width="1.0188792"
       x="-0.0094395987"
       id="filter1348"
       style="color-interpolation-filters:sRGB">
      <feGaussianBlur
         id="feGaussianBlur1350"
         stdDeviation="0.045460231" />
    </filter>
  </defs>
  <metadata
     id="metadata5139">
    <rdf:RDF>
      <cc:Work
         rdf:about="">
        <dc:format>image/svg+xml</dc:format>
        <dc:type
           rdf:resource="http://purl.org/dc/dcmitype/StillImage" />
        <dc:title></dc:title>
      </cc:Work>
    </rdf:RDF>
  </metadata>
  <g
     style="display:inline;opacity:1"
     transform="translate(0,-291.70832)"
     id="layer1">
    <path
       id="path4549"
       d="m 9.8831185,308.71151 c -0.1626808,-0.063 -0.7154975,-0.34296 -0.9364068,-0.47445 -0.9939567,-0.59163 -1.8596079,-1.38238 -2.5988868,-2.37402 -1.3040614,-1.7492 -2.1512213,-4.06713 -2.4262512,-6.6385 -0.038787,-0.36263 -0.1678618,-1.86393 -0.1678618,-1.95243 0,-0.0463 0.050096,-0.0743 0.8484988,-0.47407 0.8958303,-0.44852 1.2114477,-0.59404 1.6643504,-0.76733 1.666526,-0.63767 3.202676,-0.83914 4.8222659,-0.63244 1.065381,0.13598 2.228527,0.47694 3.384724,0.99218 0.452509,0.20164 1.732621,0.79548 1.744243,0.80913 0.01051,0.0124 -0.03483,0.60218 -0.121337,1.57806 -0.08614,0.97166 -0.230572,1.8423 -0.447924,2.7001 -0.745549,2.9423 -2.289826,5.28316 -4.32793,6.56036 -0.422459,0.26475 -1.251503,0.71241 -1.315395,0.71029 -0.01604,-4.3e-4 -0.070984,-0.0171 -0.1220897,-0.0368 z M 10.1198,308.11782 c 0.223242,-0.0771 0.779985,-0.38666 1.180762,-0.65648 1.212306,-0.81619 2.322793,-2.20733 3.11163,-3.89802 0.435118,-0.9326 0.767948,-1.96582 0.950707,-2.95141 0.132826,-0.71629 0.169425,-1.10417 0.181077,-1.91903 0.0179,-1.25162 -0.0047,-1.29961 -0.801503,-1.69966 -0.83996,-0.42171 -1.616455,-0.68829 -2.553337,-0.8766 -0.680988,-0.13687 -1.220635,-0.1943 -1.971991,-0.20988 -1.7876464,-0.037 -3.4137044,0.31051 -4.9110115,1.04975 -0.546314,0.26973 -0.6830696,0.36733 -0.7728938,0.55153 -0.082987,0.17018 -0.094497,0.25454 -0.1059857,0.77693 -0.018511,0.84162 0.048959,1.56405 0.2286172,2.44791 0.4063399,1.9991 1.3420142,4.04103 2.4275886,5.29778 0.6779142,0.78481 2.0676276,1.84942 2.7125005,2.07795 0.1516075,0.0537 0.1917302,0.0549 0.3238397,0.009 z"
       style="opacity:0.72000002;fill:#9da3a5;fill-opacity:1;stroke:none;stroke-width:0.00702382;stroke-miterlimit:4;stroke-dasharray:none;stroke-opacity:1;paint-order:normal" />
    <path
       id="path4551"
       d="m 9.9489959,307.32844 c -0.1188061,-0.0145 -0.7288439,-0.35023 -1.1139161,-0.61282 -1.3454663,-0.91749 -2.4678967,-2.55197 -3.1326406,-4.56173 -0.2035275,-0.61533 -0.3239435,-1.11212 -0.4991791,-2.05942 -0.1497772,-0.80967 -0.1872377,-1.08879 -0.1892665,-1.41023 -0.0021,-0.33324 0.02865,-0.46131 0.1506961,-0.62749 0.1288274,-0.17541 0.3137013,-0.29585 0.7902864,-0.51485 1.1706982,-0.53796 2.1578275,-0.82511 3.24336,-0.94346 0.1989815,-0.0217 0.4201831,-0.0302 0.7870576,-0.0302 0.5615663,0 0.8393233,0.0225 1.3665363,0.11125 0.774169,0.13015 1.673239,0.41269 2.525496,0.79369 0.128438,0.0574 0.252983,0.11005 0.276767,0.11698 0.118908,0.0346 0.328576,0.16407 0.443873,0.27401 0.213272,0.20338 0.324875,0.47629 0.346018,0.84611 0.01667,0.29161 -0.0095,0.50267 -0.175584,1.41548 -0.384459,2.1131 -1.166192,4.01611 -2.163955,5.26782 -0.414757,0.52031 -1.429386,1.35297 -2.12616,1.74486 -0.252238,0.14185 -0.422867,0.20309 -0.5293891,0.18998 z"
       style="opacity:0.72000002;fill:#9da3a5;fill-opacity:1;stroke:none;stroke-width:0.00655099;stroke-miterlimit:4;stroke-dasharray:none;stroke-opacity:1;paint-order:normal" />
  </g>
  <g
     style="display:inline"
     id="layer6">
    <g
       style="fill:#a7adaf;fill-opacity:0.24705882;filter:url(#filter1348)"
       transform="matrix(0.85615963,0,0,0.85615963,18.445993,12.615684)"
       id="g1207">
      <path
         style="opacity:1;fill:#a7adaf;fill-opacity:0.24705882;stroke:none;stroke-width:0.046875;stroke-linecap:butt;stroke-linejoin:round;stroke-miterlimit:11.5;stroke-dasharray:none;stroke-opacity:1;paint-order:markers fill stroke"
         d="m -13.515678,-1.4283361 c -0.257833,-0.0272 -0.502825,-0.10003 -0.684065,-0.2035 -0.154299,-0.0881 -0.219783,-0.20426 -0.492588,-0.87382 -0.278992,-0.68475 -0.450008,-1.1405624 -0.572425,-1.5839476 -0.262747,-1.0863017 -0.534526,-2.2294679 -0.363782,-2.9828346 0.168009,-0.2391295 0.25904,-0.3323914 0.416168,-0.3990632 l 0.306332,0.046065 -0.234375,0.12752 c -0.283877,0.15445 -0.31087,0.17575 -0.348667,0.27516 -0.03352,0.0882 -4.28e-4,0.72145 0.0377,0.72145 0.01927,0 0.217444,-0.31824 0.521543,-0.83752 0.01309,-0.0224 0.29802,-0.12531 0.633176,-0.2288 0.650652,-0.20089 1.061281,-0.37689 1.372666,-0.58835 0.274944,-0.18671 0.343642,-0.20901 0.815147,-0.26465 1.275672,-0.15051 2.9750579,-0.15072 4.1715619,-5.1e-4 0.503319,0.0632 0.582886,0.088 0.802926,0.24994 0.327819,0.24132 0.717407,0.40004 1.53701,0.62618 0.505628,0.1395 0.576203,0.17383 0.688765,0.335 0.269891,0.38643 0.404593,0.55354 0.427633,0.5305 0.056025,-0.218666 0.042634,-0.39357 0.06816,-0.62921 l -0.596118,-0.4205857 c 0.4054529,-0.049751 0.6813728,0.1520178 0.8015197,0.3944455 0.082125,0.3741271 0.071315,0.8790055 0.071315,0.8790055 -0.1061563,0.7379744 -0.202428,1.7665239 -0.4076897,2.3347947 -0.1354373,0.4344008 -0.3861524,0.8029901 -0.6845524,1.6496101 -0.218194,0.61906 -0.195062,0.59098 -0.632016,0.76713 l -0.267558,0.10787 -3.58201,-0.004 c -1.9701045,-0.002 -3.6827005,-0.0149 -3.8057675,-0.0278 z"
         id="path943" />
      <path
         style="opacity:1;fill:#a7adaf;fill-opacity:0.24705882;stroke:none;stroke-width:0.03314563;stroke-linecap:butt;stroke-linejoin:round;stroke-miterlimit:11.5;stroke-dasharray:none;stroke-opacity:1;paint-order:markers fill stroke"
         d="m -14.37763,-2.3850911 c -0.01368,-0.0166 -0.08655,-0.20925 -0.161912,-0.42801 -0.225099,-0.65337 -0.346328,-1.3231255 -0.668074,-1.8766255 -0.188108,-0.3236 -0.228261,-0.4346 -0.290403,-0.80278 -0.0723,-0.42837 -0.08909,-0.66875 -0.06642,-0.95099 0.02681,-0.33385 0.06562,-0.6007 0.08737,-0.6007 0.0094,0 0.0235,0.10192 0.03124,0.2265 0.02604,0.4193 0.03645,0.48869 0.06831,0.45529 0.05058,-0.053 0.474823,-0.77413 0.474823,-0.80706 0,-0.0484 0.209747,-0.1312 0.662122,-0.26146 0.710621,-0.20461 0.989625,-0.32361 1.389733,-0.59274 0.138018,-0.0928 0.287173,-0.17905 0.331456,-0.19158 0.09764,-0.0276 0.634003,-0.0981 1.041738,-0.13696 0.414401,-0.0395 2.5405623,-0.0393 3.0052033,2.7e-4 0.49943,0.0425 1.108819,0.12796 1.195424,0.16767 0.04134,0.019 0.144765,0.0899 0.229838,0.15772 0.279376,0.22263 0.597577,0.35174 1.521315,0.61732 0.277667,0.0798 0.532552,0.15947 0.566411,0.17697 0.03386,0.0175 0.06771,0.0564 0.07523,0.0863 0.0075,0.03 0.02669,0.0676 0.0426,0.0836 0.01591,0.016 0.08738,0.11369 0.158831,0.217 0.07145,0.1033 0.159665,0.22634 0.196037,0.27342 0.08199,0.10613 0.09061,0.0901 0.111464,-0.20713 0.03215,-0.45832 0.06031,-0.47646 0.103227,-0.0665 0.05105,0.4876 -0.0016,1.37123 -0.102557,1.71968 -0.0187,0.0646 -0.14396,0.31092 -0.278353,0.54743 -0.281869,0.49605 -0.4317193,1.1775155 -0.6410863,1.7750455 l -0.149741,0.42735 -0.222243,-0.0144 c -0.657945,-0.0425 -1.368359,-0.0567 -3.50366,-0.0699 -2.879331,-0.0178 -4.280565,0.007 -5.049815,0.091 -0.09991,0.0109 -0.139434,0.007 -0.158094,-0.0158 z"
         id="path1045" />
      <path
         style="opacity:1;fill:#a7adaf;fill-opacity:0.24705882;stroke:none;stroke-width:0.09375;stroke-linecap:butt;stroke-linejoin:round;stroke-miterlimit:11.5;stroke-dasharray:none;stroke-opacity:1;paint-order:markers fill stroke"
         d="m -14.583129,-3.9562119 c -0.09818,-0.218816 -0.323806,-1.2580596 -0.51638,-1.5615906 -0.192574,-0.303532 -0.350135,-0.620296 -0.350135,-0.703922 0,-0.163107 0.315175,-0.758556 0.469147,-0.886341 0.05134,-0.04261 0.09335,-0.125771 0.09335,-0.184797 0,-0.08024 0.153771,-0.158437 0.609375,-0.309886 0.335156,-0.11141 0.890625,-0.338752 1.234375,-0.505203 0.53873,-0.260866 0.708774,-0.311932 1.231912,-0.369962 0.777399,-0.08623 2.8460493,-0.0868 3.6833413,-0.001 0.563415,0.05773 0.720103,0.101694 1.209747,0.339423 0.309375,0.150206 0.857813,0.374599 1.21875,0.498651 0.680667,0.233941 0.710568,0.256123 1.096633,0.813519 0.310609,0.448453 0.292521,0.626021 -0.133785,1.313335 -0.19189,0.309375 -0.4418613,1.3501506 -0.5405113,1.5649946 -0.09865,0.214843 -0.193794,0.390625 -0.211429,0.390625 -0.01764,0 -0.263258,-0.08438 -0.545827,-0.1875 l -0.513763,-0.1875 h -3.368039 -3.36804 l -0.531227,0.1875 c -0.292175,0.103125 -0.544226,0.1875 -0.560112,0.1875 -0.01589,0 -0.109209,-0.179031 -0.207385,-0.397846 z"
         id="path1167" />
      <path
         style="opacity:1;fill:#a7adaf;fill-opacity:0.24705882;stroke:none;stroke-width:0.09375;stroke-linecap:butt;stroke-linejoin:round;stroke-miterlimit:11.5;stroke-dasharray:none;stroke-opacity:1;paint-order:markers fill stroke"
         d="m -14.676354,-5.3879969 -0.298045,-0.414307 0.09326,-1.2574654 0.05233,-0.50627 0.75,-0.254454 c 0.412501,-0.13995 0.975,-0.371229 1.25,-0.513953 0.449191,-0.233128 0.569378,-0.266151 1.18273,-0.324969 0.945637,-0.09068 2.7996414,-0.07854 3.6610594,0.02397 0.64453,0.0767 0.752033,0.10791 1.040562,0.302076 0.193647,0.130315 0.616703,0.308568 1.062461,0.447665 1.096471,0.342149 0.996759,0.264873 1.068069,0.827743 l 0.021062,1.2405244 -0.309978,0.421875 c -0.170488,0.232031 -0.333765,0.421875 -0.362837,0.421875 -0.02907,0 -0.247782,-0.07031 -0.486021,-0.15625 l -0.433161,-0.15625 h -3.527463 -3.5274624 l -0.398702,0.15625 c -0.219286,0.08594 -0.430453,0.15625 -0.469261,0.15625 -0.03881,0 -0.204679,-0.186438 -0.368604,-0.414307 z"
         id="path1187" />
      <path
         style="opacity:1;fill:#a7adaf;fill-opacity:0.24705882;stroke:none;stroke-width:0.09375;stroke-linecap:butt;stroke-linejoin:round;stroke-miterlimit:11.5;stroke-dasharray:none;stroke-opacity:1;paint-order:markers fill stroke"
         d="m -14.443032,-6.1122027 c -0.02904,-0.07688 -0.07268,-0.258209 -0.09696,-0.402947 -0.05066,-0.30194 -0.09547,-0.277909 0.739496,-0.396574 0.984625,-0.139934 1.549105,-0.377393 1.801923,-0.758013 l 0.09615,-0.144753 h 1.905128 1.905129 l 0.173478,0.206197 c 0.280014,0.332828 0.697883,0.502923 1.581521,0.643765 1.204455,0.191975 1.092935,0.143865 1.041673,0.449378 -0.07738,0.461191 -0.130492,0.550025 -0.292258,0.488838 -0.355687,-0.134537 -2.881393,-0.318704 -4.361241,-0.318009 -1.611217,7.58e-4 -3.909471,0.169731 -4.293274,0.315652 -0.123177,0.04683 -0.156801,0.03284 -0.200764,-0.08353 z"
         id="path1191" />
    </g>
  </g>
</svg>
